<mxfile host="app.diagrams.net" modified="2024-07-10T06:47:12.826Z" agent="Mozilla/5.0 (Windows NT 10.0; Win64; x64) AppleWebKit/537.36 (KHTML, like Gecko) Chrome/126.0.0.0 Safari/537.36 Edg/126.0.0.0" etag="sLUBqMdC6_IGDDZunL0C" version="24.6.4" type="google">
  <diagram name="Page-1" id="2YBvvXClWsGukQMizWep">
    <mxGraphModel grid="0" page="1" gridSize="10" guides="1" tooltips="1" connect="1" arrows="1" fold="1" pageScale="1" pageWidth="850" pageHeight="1100" math="0" shadow="0">
      <root>
        <mxCell id="0" />
        <mxCell id="1" parent="0" />
        <mxCell id="VuLfJS0WP3f_olJii3c--74" value="" style="rounded=1;whiteSpace=wrap;html=1;fillColor=#dae8fc;strokeColor=#6c8ebf;opacity=50;" vertex="1" parent="1">
          <mxGeometry x="719" y="1063" width="45" height="181" as="geometry" />
        </mxCell>
        <mxCell id="VuLfJS0WP3f_olJii3c--15" value="" style="rounded=0;whiteSpace=wrap;html=1;" vertex="1" parent="1">
          <mxGeometry x="56" y="531" width="313" height="217" as="geometry" />
        </mxCell>
        <mxCell id="VuLfJS0WP3f_olJii3c--1" value="&lt;font style=&quot;font-size: 20px;&quot;&gt;Customer&lt;/font&gt;" style="shape=umlActor;verticalLabelPosition=bottom;verticalAlign=top;html=1;outlineConnect=0;" vertex="1" parent="1">
          <mxGeometry x="120" y="400" width="30" height="60" as="geometry" />
        </mxCell>
        <mxCell id="VuLfJS0WP3f_olJii3c--2" value="&lt;font style=&quot;font-size: 20px;&quot;&gt;AuthService&lt;/font&gt;" style="rounded=1;whiteSpace=wrap;html=1;" vertex="1" parent="1">
          <mxGeometry x="263" y="373" width="135" height="110" as="geometry" />
        </mxCell>
        <mxCell id="VuLfJS0WP3f_olJii3c--4" value="&lt;font style=&quot;font-size: 20px;&quot;&gt;FDService&lt;/font&gt;" style="rounded=1;whiteSpace=wrap;html=1;" vertex="1" parent="1">
          <mxGeometry x="475" y="373" width="131" height="110" as="geometry" />
        </mxCell>
        <mxCell id="VuLfJS0WP3f_olJii3c--5" value="" style="endArrow=none;dashed=1;html=1;rounded=0;dashPattern=12 12;entryX=0.5;entryY=1;entryDx=0;entryDy=0;" edge="1" parent="1" source="VuLfJS0WP3f_olJii3c--65" target="VuLfJS0WP3f_olJii3c--2">
          <mxGeometry width="50" height="50" relative="1" as="geometry">
            <mxPoint x="331" y="1313" as="sourcePoint" />
            <mxPoint x="329.23" y="510" as="targetPoint" />
          </mxGeometry>
        </mxCell>
        <mxCell id="VuLfJS0WP3f_olJii3c--7" value="" style="endArrow=none;dashed=1;html=1;rounded=0;dashPattern=12 12;entryX=0.5;entryY=1;entryDx=0;entryDy=0;" edge="1" parent="1" target="VuLfJS0WP3f_olJii3c--4">
          <mxGeometry width="50" height="50" relative="1" as="geometry">
            <mxPoint x="539" y="1327" as="sourcePoint" />
            <mxPoint x="539.46" y="512" as="targetPoint" />
          </mxGeometry>
        </mxCell>
        <mxCell id="VuLfJS0WP3f_olJii3c--8" value="" style="endArrow=none;dashed=1;html=1;rounded=0;dashPattern=12 12;" edge="1" parent="1">
          <mxGeometry width="50" height="50" relative="1" as="geometry">
            <mxPoint x="135" y="1307" as="sourcePoint" />
            <mxPoint x="134.70000000000002" y="508" as="targetPoint" />
          </mxGeometry>
        </mxCell>
        <mxCell id="VuLfJS0WP3f_olJii3c--9" value="" style="endArrow=classic;html=1;rounded=0;" edge="1" parent="1">
          <mxGeometry width="50" height="50" relative="1" as="geometry">
            <mxPoint x="134" y="562" as="sourcePoint" />
            <mxPoint x="328" y="562" as="targetPoint" />
          </mxGeometry>
        </mxCell>
        <mxCell id="VuLfJS0WP3f_olJii3c--19" value="&lt;font style=&quot;font-size: 20px;&quot;&gt;Login&lt;/font&gt;" style="edgeLabel;html=1;align=center;verticalAlign=middle;resizable=0;points=[];" vertex="1" connectable="0" parent="VuLfJS0WP3f_olJii3c--9">
          <mxGeometry x="-0.0497" y="1" relative="1" as="geometry">
            <mxPoint as="offset" />
          </mxGeometry>
        </mxCell>
        <mxCell id="VuLfJS0WP3f_olJii3c--11" value="" style="endArrow=none;dashed=1;html=1;rounded=0;startArrow=block;startFill=1;dashPattern=12 12;" edge="1" parent="1">
          <mxGeometry width="50" height="50" relative="1" as="geometry">
            <mxPoint x="137" y="612" as="sourcePoint" />
            <mxPoint x="329" y="612" as="targetPoint" />
          </mxGeometry>
        </mxCell>
        <mxCell id="VuLfJS0WP3f_olJii3c--21" value="&lt;span style=&quot;font-size: 20px; background-color: rgb(251, 251, 251);&quot;&gt;Login Successful&lt;/span&gt;" style="edgeLabel;html=1;align=center;verticalAlign=middle;resizable=0;points=[];" vertex="1" connectable="0" parent="VuLfJS0WP3f_olJii3c--11">
          <mxGeometry x="-0.0343" y="2" relative="1" as="geometry">
            <mxPoint as="offset" />
          </mxGeometry>
        </mxCell>
        <mxCell id="VuLfJS0WP3f_olJii3c--23" value="" style="endArrow=none;dashed=1;html=1;rounded=0;startArrow=block;startFill=1;dashPattern=12 12;" edge="1" parent="1">
          <mxGeometry width="50" height="50" relative="1" as="geometry">
            <mxPoint x="135" y="658" as="sourcePoint" />
            <mxPoint x="327" y="658" as="targetPoint" />
          </mxGeometry>
        </mxCell>
        <mxCell id="VuLfJS0WP3f_olJii3c--24" value="&lt;span style=&quot;font-size: 20px; background-color: rgb(251, 251, 251);&quot;&gt;Login Fail&lt;/span&gt;" style="edgeLabel;html=1;align=center;verticalAlign=middle;resizable=0;points=[];" vertex="1" connectable="0" parent="VuLfJS0WP3f_olJii3c--23">
          <mxGeometry x="-0.0343" y="2" relative="1" as="geometry">
            <mxPoint as="offset" />
          </mxGeometry>
        </mxCell>
        <mxCell id="VuLfJS0WP3f_olJii3c--25" value="" style="endArrow=classic;html=1;rounded=0;" edge="1" parent="1">
          <mxGeometry width="50" height="50" relative="1" as="geometry">
            <mxPoint x="135" y="706" as="sourcePoint" />
            <mxPoint x="329" y="706" as="targetPoint" />
          </mxGeometry>
        </mxCell>
        <mxCell id="VuLfJS0WP3f_olJii3c--26" value="&lt;font style=&quot;font-size: 20px;&quot;&gt;Try Again&lt;/font&gt;" style="edgeLabel;html=1;align=center;verticalAlign=middle;resizable=0;points=[];" vertex="1" connectable="0" parent="VuLfJS0WP3f_olJii3c--25">
          <mxGeometry x="-0.0497" y="1" relative="1" as="geometry">
            <mxPoint as="offset" />
          </mxGeometry>
        </mxCell>
        <mxCell id="VuLfJS0WP3f_olJii3c--27" value="" style="endArrow=none;dashed=1;html=1;rounded=0;entryX=1;entryY=0.5;entryDx=0;entryDy=0;exitX=0;exitY=0.5;exitDx=0;exitDy=0;dashPattern=12 12;" edge="1" parent="1" source="VuLfJS0WP3f_olJii3c--15" target="VuLfJS0WP3f_olJii3c--15">
          <mxGeometry width="50" height="50" relative="1" as="geometry">
            <mxPoint x="39" y="892" as="sourcePoint" />
            <mxPoint x="89" y="842" as="targetPoint" />
          </mxGeometry>
        </mxCell>
        <mxCell id="VuLfJS0WP3f_olJii3c--32" value="" style="endArrow=classic;html=1;rounded=0;" edge="1" parent="1">
          <mxGeometry width="50" height="50" relative="1" as="geometry">
            <mxPoint x="133" y="797" as="sourcePoint" />
            <mxPoint x="536" y="797" as="targetPoint" />
          </mxGeometry>
        </mxCell>
        <mxCell id="VuLfJS0WP3f_olJii3c--33" value="&lt;font style=&quot;font-size: 20px;&quot;&gt;Request FD&lt;/font&gt;" style="edgeLabel;html=1;align=center;verticalAlign=middle;resizable=0;points=[];" vertex="1" connectable="0" parent="VuLfJS0WP3f_olJii3c--32">
          <mxGeometry x="-0.0497" y="1" relative="1" as="geometry">
            <mxPoint x="13" y="1" as="offset" />
          </mxGeometry>
        </mxCell>
        <mxCell id="VuLfJS0WP3f_olJii3c--38" value="" style="endArrow=classic;html=1;rounded=0;dashed=1;dashPattern=12 12;" edge="1" parent="1">
          <mxGeometry width="50" height="50" relative="1" as="geometry">
            <mxPoint x="134" y="895" as="sourcePoint" />
            <mxPoint x="537" y="895" as="targetPoint" />
          </mxGeometry>
        </mxCell>
        <mxCell id="VuLfJS0WP3f_olJii3c--39" value="&lt;font style=&quot;font-size: 20px;&quot;&gt;Submit Details&lt;/font&gt;" style="edgeLabel;html=1;align=center;verticalAlign=middle;resizable=0;points=[];" vertex="1" connectable="0" parent="VuLfJS0WP3f_olJii3c--38">
          <mxGeometry x="-0.0497" y="1" relative="1" as="geometry">
            <mxPoint x="13" y="1" as="offset" />
          </mxGeometry>
        </mxCell>
        <mxCell id="VuLfJS0WP3f_olJii3c--40" value="" style="endArrow=none;html=1;rounded=0;endFill=0;startArrow=block;startFill=1;" edge="1" parent="1">
          <mxGeometry width="50" height="50" relative="1" as="geometry">
            <mxPoint x="136" y="848" as="sourcePoint" />
            <mxPoint x="539" y="848" as="targetPoint" />
          </mxGeometry>
        </mxCell>
        <mxCell id="VuLfJS0WP3f_olJii3c--42" value="&lt;font style=&quot;font-size: 20px;&quot;&gt;Request Details&lt;/font&gt;" style="edgeLabel;html=1;align=center;verticalAlign=middle;resizable=0;points=[];" vertex="1" connectable="0" parent="VuLfJS0WP3f_olJii3c--40">
          <mxGeometry x="-0.0328" y="-1" relative="1" as="geometry">
            <mxPoint as="offset" />
          </mxGeometry>
        </mxCell>
        <mxCell id="VuLfJS0WP3f_olJii3c--46" value="" style="endArrow=none;html=1;rounded=0;endFill=0;startArrow=block;startFill=1;" edge="1" parent="1">
          <mxGeometry width="50" height="50" relative="1" as="geometry">
            <mxPoint x="134" y="947" as="sourcePoint" />
            <mxPoint x="537" y="947" as="targetPoint" />
          </mxGeometry>
        </mxCell>
        <mxCell id="VuLfJS0WP3f_olJii3c--47" value="&lt;font style=&quot;font-size: 20px;&quot;&gt;Request amount&lt;/font&gt;" style="edgeLabel;html=1;align=center;verticalAlign=middle;resizable=0;points=[];" vertex="1" connectable="0" parent="VuLfJS0WP3f_olJii3c--46">
          <mxGeometry x="-0.0328" y="-1" relative="1" as="geometry">
            <mxPoint as="offset" />
          </mxGeometry>
        </mxCell>
        <mxCell id="VuLfJS0WP3f_olJii3c--48" value="" style="endArrow=classic;html=1;rounded=0;dashed=1;dashPattern=12 12;" edge="1" parent="1">
          <mxGeometry width="50" height="50" relative="1" as="geometry">
            <mxPoint x="136" y="1007" as="sourcePoint" />
            <mxPoint x="539" y="1007" as="targetPoint" />
          </mxGeometry>
        </mxCell>
        <mxCell id="VuLfJS0WP3f_olJii3c--49" value="&lt;font style=&quot;font-size: 20px;&quot;&gt;Deposit Amount&lt;/font&gt;" style="edgeLabel;html=1;align=center;verticalAlign=middle;resizable=0;points=[];" vertex="1" connectable="0" parent="VuLfJS0WP3f_olJii3c--48">
          <mxGeometry x="-0.0497" y="1" relative="1" as="geometry">
            <mxPoint x="13" y="1" as="offset" />
          </mxGeometry>
        </mxCell>
        <mxCell id="VuLfJS0WP3f_olJii3c--50" value="&lt;font style=&quot;font-size: 20px;&quot;&gt;Account&lt;/font&gt;" style="rounded=1;whiteSpace=wrap;html=1;" vertex="1" parent="1">
          <mxGeometry x="676" y="373" width="131" height="110" as="geometry" />
        </mxCell>
        <mxCell id="VuLfJS0WP3f_olJii3c--52" value="" style="endArrow=classic;html=1;rounded=0;" edge="1" parent="1">
          <mxGeometry width="50" height="50" relative="1" as="geometry">
            <mxPoint x="540" y="1064" as="sourcePoint" />
            <mxPoint x="741" y="1064" as="targetPoint" />
          </mxGeometry>
        </mxCell>
        <mxCell id="VuLfJS0WP3f_olJii3c--54" value="" style="endArrow=none;dashed=1;html=1;rounded=0;startArrow=block;startFill=1;dashPattern=12 12;" edge="1" parent="1">
          <mxGeometry width="50" height="50" relative="1" as="geometry">
            <mxPoint x="132" y="1106" as="sourcePoint" />
            <mxPoint x="743" y="1106" as="targetPoint" />
          </mxGeometry>
        </mxCell>
        <mxCell id="VuLfJS0WP3f_olJii3c--55" value="&lt;span style=&quot;font-size: 20px; background-color: rgb(251, 251, 251);&quot;&gt;Notify User&lt;/span&gt;" style="edgeLabel;html=1;align=center;verticalAlign=middle;resizable=0;points=[];" vertex="1" connectable="0" parent="VuLfJS0WP3f_olJii3c--54">
          <mxGeometry x="-0.0343" y="2" relative="1" as="geometry">
            <mxPoint as="offset" />
          </mxGeometry>
        </mxCell>
        <mxCell id="VuLfJS0WP3f_olJii3c--57" value="" style="endArrow=classic;html=1;rounded=0;" edge="1" parent="1">
          <mxGeometry width="50" height="50" relative="1" as="geometry">
            <mxPoint x="136" y="1160" as="sourcePoint" />
            <mxPoint x="539" y="1160" as="targetPoint" />
          </mxGeometry>
        </mxCell>
        <mxCell id="VuLfJS0WP3f_olJii3c--58" value="&lt;font style=&quot;font-size: 20px;&quot;&gt;Cancel FD&lt;/font&gt;" style="edgeLabel;html=1;align=center;verticalAlign=middle;resizable=0;points=[];" vertex="1" connectable="0" parent="VuLfJS0WP3f_olJii3c--57">
          <mxGeometry x="-0.0497" y="1" relative="1" as="geometry">
            <mxPoint x="11" y="4" as="offset" />
          </mxGeometry>
        </mxCell>
        <mxCell id="VuLfJS0WP3f_olJii3c--59" value="" style="endArrow=classic;html=1;rounded=0;" edge="1" parent="1">
          <mxGeometry width="50" height="50" relative="1" as="geometry">
            <mxPoint x="540" y="1195" as="sourcePoint" />
            <mxPoint x="741" y="1195" as="targetPoint" />
          </mxGeometry>
        </mxCell>
        <mxCell id="VuLfJS0WP3f_olJii3c--60" value="&lt;span style=&quot;font-size: 20px;&quot;&gt;Release fund&lt;/span&gt;" style="edgeLabel;html=1;align=center;verticalAlign=middle;resizable=0;points=[];" vertex="1" connectable="0" parent="VuLfJS0WP3f_olJii3c--59">
          <mxGeometry x="-0.0497" y="1" relative="1" as="geometry">
            <mxPoint x="13" y="1" as="offset" />
          </mxGeometry>
        </mxCell>
        <mxCell id="VuLfJS0WP3f_olJii3c--73" value="&lt;span style=&quot;font-size: 20px;&quot;&gt;Interest payout&lt;/span&gt;" style="edgeLabel;html=1;align=center;verticalAlign=middle;resizable=0;points=[];" vertex="1" connectable="0" parent="VuLfJS0WP3f_olJii3c--59">
          <mxGeometry x="-0.0497" y="1" relative="1" as="geometry">
            <mxPoint x="7" y="-132" as="offset" />
          </mxGeometry>
        </mxCell>
        <mxCell id="VuLfJS0WP3f_olJii3c--61" value="" style="endArrow=none;dashed=1;html=1;rounded=0;startArrow=block;startFill=1;dashPattern=12 12;" edge="1" parent="1">
          <mxGeometry width="50" height="50" relative="1" as="geometry">
            <mxPoint x="539" y="1240" as="sourcePoint" />
            <mxPoint x="744" y="1240" as="targetPoint" />
          </mxGeometry>
        </mxCell>
        <mxCell id="VuLfJS0WP3f_olJii3c--62" value="&lt;span style=&quot;font-size: 20px; background-color: rgb(251, 251, 251);&quot;&gt;Acknowledge&lt;/span&gt;" style="edgeLabel;html=1;align=center;verticalAlign=middle;resizable=0;points=[];" vertex="1" connectable="0" parent="VuLfJS0WP3f_olJii3c--61">
          <mxGeometry x="-0.0343" y="2" relative="1" as="geometry">
            <mxPoint as="offset" />
          </mxGeometry>
        </mxCell>
        <mxCell id="VuLfJS0WP3f_olJii3c--63" value="" style="endArrow=none;dashed=1;html=1;rounded=0;startArrow=block;startFill=1;dashPattern=12 12;" edge="1" parent="1">
          <mxGeometry width="50" height="50" relative="1" as="geometry">
            <mxPoint x="135" y="1272" as="sourcePoint" />
            <mxPoint x="538" y="1272" as="targetPoint" />
          </mxGeometry>
        </mxCell>
        <mxCell id="VuLfJS0WP3f_olJii3c--64" value="&lt;span style=&quot;font-size: 20px; background-color: rgb(251, 251, 251);&quot;&gt;Acknowledge&lt;/span&gt;" style="edgeLabel;html=1;align=center;verticalAlign=middle;resizable=0;points=[];" vertex="1" connectable="0" parent="VuLfJS0WP3f_olJii3c--63">
          <mxGeometry x="-0.0343" y="2" relative="1" as="geometry">
            <mxPoint as="offset" />
          </mxGeometry>
        </mxCell>
        <mxCell id="VuLfJS0WP3f_olJii3c--66" value="" style="endArrow=none;dashed=1;html=1;rounded=0;dashPattern=12 12;entryX=0.5;entryY=1;entryDx=0;entryDy=0;" edge="1" parent="1" target="VuLfJS0WP3f_olJii3c--65">
          <mxGeometry width="50" height="50" relative="1" as="geometry">
            <mxPoint x="331" y="1313" as="sourcePoint" />
            <mxPoint x="331" y="483" as="targetPoint" />
          </mxGeometry>
        </mxCell>
        <mxCell id="VuLfJS0WP3f_olJii3c--65" value="" style="rounded=1;whiteSpace=wrap;html=1;fillColor=#dae8fc;strokeColor=#6c8ebf;opacity=50;" vertex="1" parent="1">
          <mxGeometry x="308" y="531" width="45" height="217" as="geometry" />
        </mxCell>
        <mxCell id="VuLfJS0WP3f_olJii3c--67" value="" style="rounded=1;whiteSpace=wrap;html=1;fillColor=#dae8fc;strokeColor=#6c8ebf;opacity=50;" vertex="1" parent="1">
          <mxGeometry x="518" y="797" width="45" height="475" as="geometry" />
        </mxCell>
        <mxCell id="VuLfJS0WP3f_olJii3c--75" value="" style="endArrow=none;dashed=1;html=1;rounded=0;dashPattern=12 12;entryX=0.5;entryY=1;entryDx=0;entryDy=0;" edge="1" parent="1" target="VuLfJS0WP3f_olJii3c--74">
          <mxGeometry width="50" height="50" relative="1" as="geometry">
            <mxPoint x="740.91" y="1324" as="sourcePoint" />
            <mxPoint x="742" y="483" as="targetPoint" />
          </mxGeometry>
        </mxCell>
        <mxCell id="VuLfJS0WP3f_olJii3c--51" value="" style="endArrow=none;dashed=1;html=1;rounded=0;dashPattern=12 12;entryX=0.5;entryY=1;entryDx=0;entryDy=0;" edge="1" parent="1" source="VuLfJS0WP3f_olJii3c--74" target="VuLfJS0WP3f_olJii3c--50">
          <mxGeometry width="50" height="50" relative="1" as="geometry">
            <mxPoint x="740.91" y="1324" as="sourcePoint" />
            <mxPoint x="741.37" y="509" as="targetPoint" />
          </mxGeometry>
        </mxCell>
        <mxCell id="u8Ql5PTtoPToIKO1QBQw-1" value="[Correct]" style="text;html=1;align=center;verticalAlign=middle;whiteSpace=wrap;rounded=0;" vertex="1" parent="1">
          <mxGeometry x="63" y="535" width="60" height="30" as="geometry" />
        </mxCell>
        <mxCell id="u8Ql5PTtoPToIKO1QBQw-2" value="[InCorrect]" style="text;html=1;align=center;verticalAlign=middle;whiteSpace=wrap;rounded=0;" vertex="1" parent="1">
          <mxGeometry x="63" y="643" width="60" height="30" as="geometry" />
        </mxCell>
      </root>
    </mxGraphModel>
  </diagram>
</mxfile>
